<svg width="50" height="50" xmlns="http://www.w3.org/2000/svg">
 <style type="text/css">.st0{fill:#b2b3b4;}</style>

 <g>
  <title>background</title>
  <rect fill="none" id="canvas_background" height="52" width="52" y="-1" x="-1"/>
 </g>
 <g>
  <title>Layer 1</title>
  <g stroke="null" id="XMLID_2_">
   <path stroke="null" d="m0.599058,20.036801c0,3.6 1.063348,6.8 3.278656,9.9c2.215308,3 5.139515,5.4 8.861233,7.2c3.721718,1.7 7.797885,2.6 12.228502,2.6c1.240573,0 2.569758,-0.1 3.987555,-0.2c3.633106,3.6 7.797885,6.1 12.494338,7.4c0.886123,0.3 1.949471,0.5 3.101432,0.7c0.265837,0 0.620286,-0.1 0.797511,-0.3s0.443062,-0.5 0.443062,-0.9l0,0c0.088612,-0.1 0.088612,-0.2 0,-0.4c-0.088612,-0.2 -0.088612,-0.3 -0.088612,-0.3c0,0 0,-0.1 -0.088612,-0.3l-0.177225,-0.3l-0.177225,-0.3l-0.177225,-0.3c-0.088612,-0.2 -0.443062,-0.5 -0.886123,-1.1c-0.443062,-0.5 -0.708899,-0.9 -0.974736,-1.2s-0.443062,-0.6 -0.886123,-1.2c-0.354449,-0.6 -0.708899,-1.1 -0.886123,-1.6c-0.177225,-0.5 -0.443062,-1.1 -0.708899,-1.8c-0.265837,-0.7 -0.531674,-1.5 -0.708899,-2.3c2.835595,-1.8 5.050903,-4.1 6.734537,-6.8c1.683634,-2.7 2.481145,-5.6 2.481145,-8.6c0,-2.7 -0.620286,-5.2 -1.949471,-7.6c-1.329185,-2.4 -3.012819,-4.5 -5.228127,-6.3s-4.785066,-3.2 -7.797885,-4.2c-3.012819,-1 -6.202863,-1.5 -9.481519,-1.5c-4.430616,0 -8.506784,0.9 -12.228502,2.6c-3.721718,1.7 -6.734537,4.1 -8.861233,7.2c-2.038084,3 -3.101432,6.3 -3.101432,9.9z" class="st0" id="XMLID_4_"/>
  </g>
 </g>
</svg>