<svg xmlns="http://www.w3.org/2000/svg" viewBox="-10116.457 -3690 474.133 474.133">
  <g transform="translate(-10116.431 -3690.027)">
    <rect fill="#bcbcbc" width="335.266" height="335.266" transform="translate(-0.026 237.093) rotate(-45)"/>
    <path fill="#f0f0f0" d="M70.13,173.67c0-32.324,24.807-54.875,46.356-64.648l.752,1c-8.018,9.271-13.03,19.294-13.03,40.342,0,22.8,5.763,38.588,15.034,49.363,2.756-3.257,4.26-9.021,4.26-13.782V148.112L164.6,118.795l.5.752c-3.759,5.011-5.011,9.772-5.011,18.542V164.4c0,13.531-25.057,31.071-39.841,36.584,11.025,12.027,27.062,17.039,44.1,17.039a111.57,111.57,0,0,0,13.28-.752V117.792c-15.535-.752-30.069-5.262-43.6-9.021-11.276-3.257-22.05-6.014-31.823-6.014-18.041,0-39.841,6.014-39.59,31.823a61.7,61.7,0,0,0,.5,6.515l-1.253.5a56.6,56.6,0,0,1-4.26-22.05C57.351,90.48,78.9,64.421,113.73,64.421c14.784,0,27.563,3.508,39.841,6.765,13.03,3.759,25.558,7.517,40.342,7.517,7.267,0,10.775-3.257,10.775-10.023S201.43,57.906,196.92,56.4l.251-1c13.781,2.255,30.319,10.775,30.319,29.317,0,24.055-16.788,33.326-44.1,33.326h-4.009v98.725c20.8-3.007,34.078-11.526,43.85-27.312l.752.5c-12.027,33.577-32.574,62.894-75.422,62.894-42.848.251-78.429-27.312-78.429-79.181m113.509-63.645c-31.322,0-58.634-15.285-81.436-15.285-14.533,0-31.071,5.763-36.834,21.3l.251.251C72.385,104.262,88.171,101,102.2,101c22.8,0,50.365,15.285,81.436,15.285,25.057,0,39.59-7.768,42.1-27.813h-.5c-3.759,15.034-16.538,21.549-41.595,21.549M93.433,126.562c-11.025,11.526-21.048,26.31-21.048,47.108,0,51.868,35.581,77.176,77.176,77.176,25.809,0,42.347-12.529,52.871-23.3l-.251-.752c-12.028,9.522-27.814,17.54-52.62,17.54-33.827,0-70.661-23.053-70.661-70.912a78.989,78.989,0,0,1,15.034-46.606Zm38.588,56.88V144.353l-6.264,4.51V186.7a19.967,19.967,0,0,1-2,9.021l.5.251c3.257-3.007,7.768-7.016,7.768-12.529" transform="translate(86.768 83.377)"/>
  </g>
</svg>